                     	Another Way To Die - Disturbed


About the Artist
Disturbed is an American rock band from Chicago, Illinois, formed in 1996 when musicians Dan Donegan, Steve "Fuzz" Kmak, and Mike Wengren hired David Draiman as their singer. Since the band's formation, they have sold over 11 million albums worldwide, making them one of the largest grossing rock bands in recent years. The band has released three consecutive studio albums that have debuted at number-one on the Billboard 200.


Description

"Another Way to Die" is a song by American rock band Disturbed, released as the first single from their fifth studio album, Asylum. Airplay for the single began on the morning of June 14, 2010. That same day, a lyric video was posted by the band on their officialchannel and was released as a digital download on June 15, 2010 via iTunes.

On its release date, "Another Way to Die" reached #1 in the iTunes music store's rock section.


Plot

The band shot a music video for the track directed by Robert Schober (also known as Roboshobo) and was released on August 9th. The concept perfectly fits the song which has environmental theme. The Video depicts a News channel featuring the destruction caused to the environment.

In an interview with The Pulse of Radio, frontman David Draiman explained how the track contains some very timely subject matter:
“Obviously it's referring to the global catastrophe that we know as global warming, and the effects that it continues to have on our planet; our irresponsibility in doing what we do as species, our constant appetite, our constant consumption at all costs. No matter what is destroyed, no matter what is laid to waste. And, certainly, what's happening in the Gulf now is horrific."


Lyrics

The indulgence of our lives has cast a shadow on our world.
Our devotion to our appetites betrayed us all.
An apocalyptic plight.
More destruction will unfold.
Mother Earth will show her darker side and take her toll.

It's just another way to die.

There can be another reason why.
You know we should have seen it coming.
Consequences we cannot deny will be revealed in time.
Glaciers melt as we pollute the sky.
A sign of devastation coming.
We don’t need another way to die.
Can we repent in time?

[Pre-chorus:]
The Time bomb is ticking and no one is listening.
Our future is fading.
Is there any hope we’ll survive?

[Chorus:]
Still, we ravage the world that we love.
And the millions cry out to be saved.
Our endless maniacal appetite.
Left us with another way to die.
It's just another way to die.
Can we repent in time?

Greed and hunger led to our demise.
A path I can’t believe we followed.
Black agenda’s rooted in a lie.
Will we repent in time?
Species fall before our very eyes.
A world that they cannot survive in left them with another way to die.
Are we dead inside?

[Pre-chorus]

[Chorus x2]

Can we repent in time?
It's just another way to die.
Can we repent in time? 


Details

General
Format                           : MPEG-4
File size                        : 68.0 MiB
Duration                         : 4mn 15s
Overall bit rate                 : 2 230 Kbps

Video
Format                           : AVC
Duration                         : 4mn 15s
Bit rate mode                    : Variable
Bit rate                         : 2 104 Kbps
Maximum bit rate                 : 31.9 Mbps
Width                            : 1 280 pixels
Height                           : 720 pixels
Display aspect ratio             : 16:9
Frame rate mode                  : Constant
Frame rate                       : 29.917 fps
Bit depth                        : 8 bits
Scan type                        : Progressive
Stream size                      : 64.1 MiB (94%)

Audio
Format                           : AAC
Duration                         : 4mn 15s
Bit rate mode                    : Variable
Bit rate                         : 124 Kbps
Maximum bit rate                 : 141 Kbps
Channel(s)                       : 2 channels
Channel positions                : Front: L R
Sampling rate                    : 44.1 KHz
Stream size                      : 3.77 MiB (6%)